<svg xmlns="http://www.w3.org/2000/svg" viewBox="0 0 24 24" fill="currentColor">
  <!-- ActivityPub / Fediverse icon -->
  <path d="M12.53 2.04a10.43 10.43 0 0 0-7.53 3.19A10.43 10.43 0 0 0 2.04 13a10.43 10.43 0 0 0 5.5 8.44 10.43 10.43 0 0 0 9.9-.1 10.43 10.43 0 0 0 4.52-5.84 10.43 10.43 0 0 0-.62-7.96A10.43 10.43 0 0 0 14.9 2.38a10.43 10.43 0 0 0-2.37-.34zm-.06 1.96a8.47 8.47 0 0 1 4.87 1.53l-3.28 1.9-1.62-.94-1.62.94-3.28-1.9a8.47 8.47 0 0 1 4.93-1.53zM6.47 6.72l3.1 1.8v3.6l-3.1 1.79A8.47 8.47 0 0 1 5.03 12a8.47 8.47 0 0 1 1.44-5.28zm11.06 0A8.47 8.47 0 0 1 18.97 12a8.47 8.47 0 0 1-1.44 5.28l-3.1-1.79v-3.6zM12 9.44l1.62.94v1.88L12 13.2l-1.62-.94v-1.88zm-4.47 4.12 3.1 1.79v3.78a8.47 8.47 0 0 1-5.45-3.72zm8.94 0 2.35 1.85a8.47 8.47 0 0 1-5.45 3.72v-3.78z"/>
</svg>
