<svg xmlns="http://www.w3.org/2000/svg" viewBox="0 0 24 24">
  <rect width="24" height="24" rx="5" fill="#5865F2"/>
  <path fill="#fff" d="M18.9 5.6a16.3 16.3 0 0 0-4-1.2h-.2c-.2.3-.3.7-.5 1a15 15 0 0 0-4.5 0 9.7 9.7 0 0 0-.5-1H9a16.3 16.3 0 0 0-4 1.3 17.2 17.2 0 0 0-2.9 11.3 16.4 16.4 0 0 0 4.9 2.5l1-1.6a10.7 10.7 0 0 1-1.5-.7l.3-.3a11.6 11.6 0 0 0 9.9 0l.3.3a10.7 10.7 0 0 1-1.5.7l1 1.6a16.3 16.3 0 0 0 4.9-2.5 17.1 17.1 0 0 0-2.9-11.4zM9.1 14.7a1.8 1.8 0 0 1-1.7-2 1.8 1.8 0 0 1 1.7-2 1.8 1.8 0 0 1 1.7 2 1.8 1.8 0 0 1-1.7 2zm5.7 0a1.8 1.8 0 0 1-1.7-2 1.8 1.8 0 0 1 1.7-2 1.8 1.8 0 0 1 1.7 2 1.8 1.8 0 0 1-1.7 2z"/>
</svg>
