<svg xmlns="http://www.w3.org/2000/svg" viewBox="0 0 24 24">
  <rect width="24" height="24" rx="12" fill="#E60023"/>
  <path fill="#fff" d="M12 2C6.5 2 2 6.5 2 12c0 4.2 2.6 7.9 6.4 9.4-.1-.8-.1-2.1.1-3l1.2-5.2s-.3-.6-.3-1.6c0-1.5.9-2.6 2-2.6.9 0 1.4.7 1.4 1.5 0 .9-.6 2.3-1 3.6-.3 1 .5 1.9 1.6 1.9 1.9 0 3.4-2 3.4-4.9 0-2.5-1.8-4.3-4.4-4.3-3 0-4.8 2.3-4.8 4.6 0 .9.4 1.9.8 2.4a.3.3 0 0 1 .1.3l-.3 1.3c0 .2-.2.2-.3.1-1.3-.6-2.1-2.5-2.1-4.1 0-3.3 2.4-6.4 6.9-6.4 3.7 0 6.5 2.6 6.5 6.1 0 3.6-2.3 6.5-5.5 6.5-1.1 0-2.1-.5-2.4-1.2l-.6 2.4c-.2.9-.8 2-1.2 2.7.9.3 1.9.4 2.9.4 5.5 0 10-4.5 10-10S17.5 2 12 2z"/>
</svg>
