<svg xmlns="http://www.w3.org/2000/svg" viewBox="0 0 24 24">
  <rect width="24" height="24" rx="12" fill="#FF4500"/>
  <path fill="#fff" d="M22 12a2 2 0 0 0-2-2c-.5 0-1 .2-1.3.5-1.3-.9-3-1.4-4.9-1.5l.8-3.9 2.7.6a1.5 1.5 0 1 0 .1-.7l-3-.7L13.3 9c-1.9.1-3.6.7-4.8 1.5A2 2 0 1 0 6 13.5a3.5 3.5 0 0 0 0 .5c0 2.5 2.7 4.5 6 4.5s6-2 6-4.5c0-.2 0-.3 0-.5.5-.3.9-.8.9-1.5zm-10.5 3c-.8 0-1.5-.7-1.5-1.5s.7-1.5 1.5-1.5 1.5.7 1.5 1.5-.7 1.5-1.5 1.5zm5 0c-.8 0-1.5-.7-1.5-1.5s.7-1.5 1.5-1.5 1.5.7 1.5 1.5-.7 1.5-1.5 1.5zm.3 2.2c-.7.7-1.9 1-2.8 1s-2.1-.3-2.8-1a.4.4 0 0 1 .6-.6c.5.5 1.4.8 2.2.8s1.7-.3 2.2-.8a.4.4 0 0 1 .6.6z"/>
</svg>
