<svg xmlns="http://www.w3.org/2000/svg" viewBox="0 0 24 24">
  <rect width="24" height="24" rx="5" fill="#000"/>
  <path fill="#fff" d="M17.5 11.1c-.1-.1-.3-.1-.4-.2-.6-3.1-3-4.8-6.2-4.6-1.9.1-3.3.9-4.2 2.2l1.4 1a3.6 3.6 0 0 1 2.9-1.4c1 0 1.8.3 2.3.9.4.4.6 1 .7 1.7-.6-.1-1.3-.2-2.1-.1-2.4.1-3.9 1.5-3.8 3.4 0 1 .5 1.9 1.4 2.4.7.4 1.6.7 2.5.6a3.8 3.8 0 0 0 2.9-1.4 5.1 5.1 0 0 0 1-2.6c.5.4 1 1.1 1.2 2.2a3.5 3.5 0 0 1-.8 3.5c-1 1-2.4 1.5-4.3 1.5-2.1 0-3.8-.7-5-2-1-1.2-1.6-2.9-1.6-5s.6-3.8 1.6-5c1.2-1.3 2.8-2 4.9-2 2.2 0 3.9.7 5.1 2 1 1.1 1.5 2.6 1.5 4.3v.1a3.4 3.4 0 0 1-.4 1.1l-.6-.5zm-4.1 3.4c-1 .1-2.1-.4-2.2-1.4 0-.7.5-1.5 2.2-1.6h.6c.6 0 1.2.1 1.7.2-.2 2.3-1.3 2.7-2.3 2.8z"/>
</svg>
