<svg xmlns="http://www.w3.org/2000/svg" viewBox="0 0 24 24">
  <rect width="24" height="24" rx="5" fill="#010101"/>
  <path fill="#25F4EE" d="M10.1 8.4v7.7a2.4 2.4 0 0 1-2.4 2.4 2.4 2.4 0 0 1-2.4-2.4 2.4 2.4 0 0 1 2.4-2.4c.2 0 .4 0 .6.1V11a5.1 5.1 0 0 0-.6 0 5.2 5.2 0 0 0-5.2 5.2 5.2 5.2 0 0 0 5.2 5.2 5.2 5.2 0 0 0 5.2-5.2V4.7a6.7 6.7 0 0 0 3.9 1.3V3.2a3.9 3.9 0 0 1-3.9-3.9"/>
  <path fill="#FE2C55" d="M10.7 8.4v7.7a2.4 2.4 0 0 1-2.4 2.4 2.4 2.4 0 0 1-2.4-2.4 2.4 2.4 0 0 1 2.4-2.4c.2 0 .4 0 .6.1V11a5.1 5.1 0 0 0-.6 0 5.2 5.2 0 0 0-5.2 5.2 5.2 5.2 0 0 0 5.2 5.2 5.2 5.2 0 0 0 5.2-5.2V4.7a6.7 6.7 0 0 0 3.9 1.3V3.2a3.9 3.9 0 0 1-3.9-3.9"/>
  <path fill="#fff" d="M10.4 8.4v7.7a2.4 2.4 0 0 1-2.4 2.4 2.4 2.4 0 0 1-2.4-2.4 2.4 2.4 0 0 1 2.4-2.4c.2 0 .4 0 .6.1V11a5.1 5.1 0 0 0-.6 0 5.2 5.2 0 0 0-5.2 5.2 5.2 5.2 0 0 0 5.2 5.2 5.2 5.2 0 0 0 5.2-5.2V4.7a6.7 6.7 0 0 0 3.9 1.3V3.2a3.9 3.9 0 0 1-3.9 0"/>
</svg>
